<svg width="393" height="187" viewBox="0 0 393 187" fill="none" xmlns="http://www.w3.org/2000/svg">
<path d="M386.104 180.253C390.383 178.712 393.677 175.531 395.827 171.524C409.672 145.705 461.129 43.3062 441.888 -19.0042C419.74 -90.7338 389.939 -202.128 283.931 -240.241C178.431 -278.172 71.7125 -209.463 70.6926 -208.804C70.661 -208.783 70.7099 -208.815 70.6784 -208.794C69.6641 -208.127 -44.049 -133.038 -54.0401 1.29772C-60.0172 81.5993 -45.1581 133.91 -3.99999 164.5C46.6923 202.122 134.017 164.389 161.5 158.82C199.5 151.121 242.959 153.989 289.921 177.579C337.833 193.714 372.47 185.164 386.104 180.253Z" fill="#1E3E62"/>
</svg>
