<svg width="145" height="194" viewBox="0 0 145 194" fill="none" xmlns="http://www.w3.org/2000/svg">
<path d="M132.736 111.544L115.996 100.604C118.176 97.2638 119.966 93.6838 121.326 89.9438L140.126 96.7638C138.236 101.954 135.756 106.924 132.736 111.544Z" fill="url(#paint0_linear_363_1349)"/>
<path d="M104.576 125.474L103.656 123.954C101.326 120.094 102.156 115.104 105.626 112.224C106.756 111.284 107.856 110.294 108.906 109.264L122.936 123.514C121.386 125.044 119.766 126.494 118.086 127.874C113.826 131.374 107.426 130.194 104.576 125.474Z" fill="url(#paint1_linear_363_1349)"/>
<path d="M115.536 83.0938V63.0938L106.796 62.0438C106.196 60.0938 105.436 58.2138 104.536 56.4238L109.936 49.5538L95.7961 35.4138L89.1161 40.6638C87.2561 39.6738 85.2961 38.8438 83.2661 38.1938L82.2561 29.8038H62.2561L61.2461 38.1938C59.2161 38.8438 57.2561 39.6738 55.3961 40.6638L48.7161 35.4138L34.5761 49.5538L39.9761 56.4238C39.0761 58.2138 38.3161 60.0938 37.7161 62.0438L28.9761 63.0938V83.0938L38.0661 84.1838C38.6761 85.9838 39.4261 87.7138 40.2961 89.3638L34.5861 96.6238L48.7261 110.764L56.1761 104.914C57.7661 105.704 59.4161 106.384 61.1361 106.944L62.2661 116.374H82.2661L83.3961 106.944C85.1061 106.384 86.7661 105.704 88.3461 104.914L95.7961 110.764L109.936 96.6238L104.226 89.3638C105.096 87.7038 105.846 85.9738 106.456 84.1838L115.536 83.0938ZM88.3761 72.5938C88.3761 81.4838 81.1461 88.7138 72.2561 88.7138C63.3661 88.7138 56.1361 81.4838 56.1361 72.5938C56.1361 63.7038 63.3661 56.4738 72.2561 56.4738C81.1361 56.4738 88.3761 63.7038 88.3761 72.5938Z" fill="url(#paint2_linear_363_1349)"/>
<path d="M90.7186 91.0613C100.919 80.8609 100.919 64.3228 90.7186 54.1224C80.5183 43.922 63.9801 43.922 53.7798 54.1224C43.5794 64.3228 43.5794 80.8609 53.7798 91.0613C63.9801 101.262 80.5183 101.262 90.7186 91.0613Z" stroke="url(#paint3_linear_363_1349)" stroke-width="12" stroke-miterlimit="10"/>
<path d="M82.446 183.594C82.446 189.114 77.966 193.594 72.446 193.594C66.926 193.594 62.446 189.114 62.446 183.594H82.446Z" fill="url(#paint4_linear_363_1349)"/>
<path d="M144.376 70.0538C143.826 51.5438 136.196 34.1338 122.876 21.0238C109.566 7.9138 92.036 0.543796 73.526 0.273796C73.166 0.263796 72.806 0.283798 72.446 0.283798V20.2838C72.706 20.2838 72.966 20.2738 73.236 20.2738C100.636 20.6738 123.576 43.2738 124.396 70.6438C124.506 74.2638 124.236 77.8938 123.616 81.4138L143.306 84.9238C144.166 80.0538 144.526 75.0438 144.376 70.0538Z" fill="url(#paint5_linear_363_1349)"/>
<path d="M21.9361 20.9738C8.09608 34.6038 0.476074 52.8138 0.476074 72.2338C0.476074 98.6438 14.9061 122.894 38.1361 135.504C53.1261 143.654 62.4461 158.964 62.4461 175.474V176.444H82.4461V175.474C82.4461 151.624 69.1261 129.574 47.6861 117.934C30.9061 108.824 20.4861 91.3038 20.4861 72.2338C20.4861 58.2038 25.9861 45.0638 35.9761 35.2138C45.7761 25.5538 58.6761 20.2738 72.4461 20.2738V0.273804C53.4461 0.283804 35.5161 7.5938 21.9361 20.9738Z" fill="url(#paint6_linear_363_1349)"/>
<defs>
<linearGradient id="paint0_linear_363_1349" x1="115.989" y1="100.746" x2="140.119" y2="100.746" gradientUnits="userSpaceOnUse">
<stop offset="0.1144" stop-color="white"/>
<stop offset="1" stop-color="#91B3FA"/>
</linearGradient>
<linearGradient id="paint1_linear_363_1349" x1="102.336" y1="119.582" x2="122.934" y2="119.582" gradientUnits="userSpaceOnUse">
<stop offset="0.1144" stop-color="white"/>
<stop offset="1" stop-color="#91B3FA"/>
</linearGradient>
<linearGradient id="paint2_linear_363_1349" x1="28.964" y1="73.0977" x2="115.539" y2="73.0977" gradientUnits="userSpaceOnUse">
<stop offset="0.1144" stop-color="white"/>
<stop offset="1" stop-color="#91B3FA"/>
</linearGradient>
<linearGradient id="paint3_linear_363_1349" x1="49.5357" y1="95.3105" x2="94.9608" y2="49.8853" gradientUnits="userSpaceOnUse">
<stop stop-color="white"/>
<stop offset="0.8856" stop-color="#D6E3F5"/>
</linearGradient>
<linearGradient id="paint4_linear_363_1349" x1="72.446" y1="193.594" x2="72.446" y2="183.594" gradientUnits="userSpaceOnUse">
<stop stop-color="#B7A3FF"/>
<stop offset="0.2261" stop-color="#B3A3FF"/>
<stop offset="0.4603" stop-color="#A6A3FF"/>
<stop offset="0.6982" stop-color="#92A2FF"/>
<stop offset="0.9373" stop-color="#75A1FF"/>
<stop offset="1" stop-color="#6CA1FF"/>
</linearGradient>
<linearGradient id="paint5_linear_363_1349" x1="74.2611" y1="9.5073" x2="166.928" y2="88.1743" gradientUnits="userSpaceOnUse">
<stop stop-color="white"/>
<stop offset="1" stop-color="#91B3FA"/>
</linearGradient>
<linearGradient id="paint6_linear_363_1349" x1="0.480574" y1="88.3622" x2="144.412" y2="88.3622" gradientUnits="userSpaceOnUse">
<stop stop-color="white"/>
<stop offset="1" stop-color="#91B3FA"/>
</linearGradient>
</defs>
</svg>
