<svg width="31" height="30" viewBox="0 0 31 30" fill="none" xmlns="http://www.w3.org/2000/svg">
  <path d="M30.0934 15C30.0934 6.71578 23.3776 0 15.0934 0C6.80919 0 0.0934067 6.71578 0.0934067 15C0.0934067 22.4869 5.57872 28.6925 12.7497 29.8178V19.3359H8.94106V15H12.7497V11.6953C12.7497 7.93594 14.9891 5.85938 18.4154 5.85938C20.0565 5.85938 21.7731 6.15234 21.7731 6.15234V9.84375H19.8817C18.0183 9.84375 17.4372 11 17.4372 12.1863V15H21.5973L20.9323 19.3359H17.4372V29.8178C24.6081 28.6925 30.0934 22.487 30.0934 15Z" fill="#1877F2"/>
  <path d="M20.9323 19.3359L21.5973 15H17.4372V12.1863C17.4372 10.9999 18.0183 9.84375 19.8817 9.84375H21.7731V6.15234C21.7731 6.15234 20.0565 5.85938 18.4153 5.85938C14.9891 5.85938 12.7497 7.93594 12.7497 11.6953V15H8.94106V19.3359H12.7497V29.8178C13.525 29.9393 14.3086 30.0002 15.0934 30C15.8782 30.0002 16.6618 29.9393 17.4372 29.8178V19.3359H20.9323Z" fill="white"/>
</svg>
