<svg width="15" height="15" viewBox="0 0 15 15" fill="none" xmlns="http://www.w3.org/2000/svg">
<path d="M14.5082 13.2917L12.0916 10.875C12.9999 9.70833 13.4916 8.28333 13.4916 6.78333C13.4916 4.99166 12.7916 3.30833 11.5249 2.04166C8.91657 -0.575004 4.65824 -0.575004 2.0499 2.04166C-0.566764 4.65833 -0.566764 8.90833 2.0499 11.5167C3.31657 12.7833 4.9999 13.4833 6.79157 13.4833C8.30824 13.4833 9.7499 12.975 10.9166 12.0583L13.3332 14.475C13.4999 14.6417 13.7082 14.7167 13.9249 14.7167C14.1416 14.7167 14.3499 14.6333 14.5166 14.475C14.8416 14.15 14.8416 13.625 14.5166 13.3L14.5082 13.2917ZM3.2249 10.3417C1.25824 8.375 1.25824 5.18333 3.2249 3.22499C4.20824 2.24166 5.4999 1.74999 6.78323 1.74999C8.06657 1.74999 9.35823 2.24166 10.3416 3.22499C11.3249 4.20833 11.8166 5.44166 11.8166 6.78333C11.8166 8.125 11.2916 9.39167 10.3416 10.3417C9.39157 11.2917 8.1249 11.8167 6.78323 11.8167C5.44157 11.8167 4.1749 11.2917 3.2249 10.3417Z" fill="#686C66" fill-opacity="0.5"/>
</svg>
