<svg width="16" height="14" viewBox="0 0 16 14" fill="none" xmlns="http://www.w3.org/2000/svg">
<path d="M14.6665 9.49999H7.64987C7.27487 8.42499 6.26655 7.64996 5.05822 7.64996C3.84988 7.64996 2.84988 8.42499 2.47488 9.49999H1.24154C0.783203 9.49999 0.408203 9.87499 0.408203 10.3333C0.408203 10.7917 0.783203 11.1667 1.24154 11.1667H2.43322C2.76656 12.3167 3.80823 13.1583 5.06656 13.1583C6.32489 13.1583 7.35822 12.3167 7.69155 11.1667H14.6665C15.1249 11.1667 15.4999 10.7917 15.4999 10.3333C15.4999 9.87499 15.1249 9.49999 14.6665 9.49999ZM5.06656 11.4917C4.46656 11.4917 3.98321 11.0083 3.98321 10.4C3.98321 9.79167 4.46656 9.31663 5.06656 9.31663C5.66656 9.31663 6.14988 9.79996 6.14988 10.4083C6.14988 11.0166 5.66656 11.4917 5.06656 11.4917Z" fill="#686C66" fill-opacity="0.5"/>
<path d="M1.19173 4.50833H7.20008C7.55842 5.71666 8.65841 6.60001 9.98341 6.60001C11.3084 6.60001 12.4001 5.71666 12.7667 4.50833H14.6167C15.0751 4.50833 15.4501 4.13333 15.4501 3.675C15.4501 3.21666 15.0751 2.84166 14.6167 2.84166H12.7667C12.4084 1.64166 11.3001 0.758331 9.98341 0.758331C8.66675 0.758331 7.56673 1.64166 7.2084 2.84166H1.19173C0.733398 2.84166 0.358398 3.21666 0.358398 3.675C0.358398 4.13333 0.733398 4.50833 1.19173 4.50833ZM9.98341 2.425C10.6751 2.425 11.2334 2.98334 11.2334 3.68334C11.2334 4.38334 10.6751 4.93334 9.98341 4.93334C9.29175 4.93334 8.73341 4.375 8.73341 3.675C8.73341 2.975 9.29175 2.425 9.98341 2.425Z" fill="#EE8E66"/>
</svg>
